# xmcd CD database file generated by LOLA_Freedb v0.9beta0
# 
# Track frame offsets:
#      150
#      13274
#      28132
#      40352
#      54141
# 
# Disc length: 957 seconds
# 
# Revision: 0 
# Processed by: cddbd v1.5.2PL0 Copyright (c) Steve Scherf et al.
# Submitted via: LOLA_Freedb v0.9beta0
# 
DISCID=3903bb05
DTITLE=Hillbilly Deluxe - Hillbilly Deluxe (Demo)
DYEAR=2008
DGENRE=
TTITLE0=Hillbilly Deluxe - Jackson
TTITLE1=Hillbilly Deluxe - Thank God For The Radio
TTITLE2=Hillbilly Deluxe - Honky Tonk Song
TTITLE3=Hillbilly Deluxe - Creepin' In
TTITLE4=Hillbilly Deluxe - I Don't Even Know Your Name
EXTD=
EXTT0=
EXTT1=
EXTT2=
EXTT3=
EXTT4=
PLAYORDER=
